<svg width="194" height="37" viewBox="0 0 194 37" fill="none" xmlns="http://www.w3.org/2000/svg">
<g clip-path="url(#clip0_59_111)">
<path d="M10.5498 15.7761L21.0996 29.3959H6.10352e-05L10.5498 15.7761Z" fill="white"/>
<path d="M6.13207 15.2312L1.30434e-05 7.60413L12.2641 7.60413L6.13207 15.2312Z" fill="#FF6633"/>
<path d="M29.9904 29.5V8.91481H33.8134V26.2652H44.5765V29.5H29.9904ZM59.2196 29.7941C57.612 29.7941 56.1318 29.5294 54.7791 29.0001C53.4263 28.4707 52.25 27.7356 51.2502 26.7945C50.2503 25.8339 49.4759 24.7164 48.927 23.4421C48.378 22.1481 48.1036 20.7366 48.1036 19.2074C48.1036 17.6782 48.378 16.2765 48.927 15.0021C49.4759 13.7082 50.2503 12.5907 51.2502 11.6497C52.25 10.6891 53.4263 9.94407 54.7791 9.41473C56.1318 8.8854 57.6022 8.62073 59.1902 8.62073C60.7978 8.62073 62.2681 8.8854 63.6013 9.41473C64.954 9.94407 66.1303 10.6891 67.1302 11.6497C68.13 12.5907 68.9044 13.7082 69.4534 15.0021C70.0023 16.2765 70.2768 17.6782 70.2768 19.2074C70.2768 20.7366 70.0023 22.1481 69.4534 23.4421C68.9044 24.736 68.13 25.8535 67.1302 26.7945C66.1303 27.7356 64.954 28.4707 63.6013 29.0001C62.2681 29.5294 60.8076 29.7941 59.2196 29.7941ZM59.1902 26.4416C60.2292 26.4416 61.1899 26.2652 62.0721 25.9123C62.9543 25.5594 63.7189 25.0595 64.3659 24.4125C65.0128 23.7459 65.5128 22.9814 65.8656 22.1187C66.2381 21.2365 66.4244 20.2661 66.4244 19.2074C66.4244 18.1487 66.2381 17.1881 65.8656 16.3255C65.5128 15.4433 65.0128 14.6787 64.3659 14.0317C63.7189 13.3651 62.9543 12.8554 62.0721 12.5025C61.1899 12.1496 60.2292 11.9732 59.1902 11.9732C58.1511 11.9732 57.1905 12.1496 56.3082 12.5025C55.4456 12.8554 54.681 13.3651 54.0145 14.0317C53.3675 14.6787 52.8578 15.4433 52.4853 16.3255C52.1324 17.1881 51.9559 18.1487 51.9559 19.2074C51.9559 20.2465 52.1324 21.2071 52.4853 22.0893C52.8578 22.9716 53.3675 23.7459 54.0145 24.4125C54.6614 25.0595 55.426 25.5594 56.3082 25.9123C57.1905 26.2652 58.1511 26.4416 59.1902 26.4416ZM86.2096 29.7941C84.6412 29.7941 83.1806 29.5392 81.8279 29.0295C80.4948 28.5001 79.3283 27.765 78.3284 26.8239C77.3482 25.8633 76.5836 24.736 76.0346 23.4421C75.4857 22.1481 75.2112 20.7366 75.2112 19.2074C75.2112 17.6782 75.4857 16.2667 76.0346 14.9727C76.5836 13.6788 77.358 12.5613 78.3578 11.6203C79.3577 10.6596 80.5242 9.92446 81.8573 9.41473C83.1904 8.8854 84.651 8.62073 86.239 8.62073C87.925 8.62073 89.464 8.91481 90.856 9.50295C92.2479 10.0715 93.4242 10.9243 94.3849 12.0614L91.9146 14.3846C91.1697 13.5808 90.3364 12.9828 89.415 12.5907C88.4936 12.179 87.4937 11.9732 86.4155 11.9732C85.3372 11.9732 84.3471 12.1496 83.4453 12.5025C82.5631 12.8554 81.7887 13.3553 81.1221 14.0023C80.4752 14.6493 79.9654 15.4138 79.5929 16.2961C79.24 17.1783 79.0636 18.1487 79.0636 19.2074C79.0636 20.2661 79.24 21.2365 79.5929 22.1187C79.9654 23.001 80.4752 23.7656 81.1221 24.4125C81.7887 25.0595 82.5631 25.5594 83.4453 25.9123C84.3471 26.2652 85.3372 26.4416 86.4155 26.4416C87.4937 26.4416 88.4936 26.2456 89.415 25.8535C90.3364 25.4418 91.1697 24.8242 91.9146 24.0008L94.3849 26.3534C93.4242 27.4709 92.2479 28.3237 90.856 28.9119C89.464 29.5 87.9152 29.7941 86.2096 29.7941ZM103.812 24.6478L103.606 20.119L114.398 8.91481H118.692L109.723 18.4428L107.605 20.766L103.812 24.6478ZM100.401 29.5V8.91481H104.223V29.5H100.401ZM114.751 29.5L106.87 20.119L109.399 17.3253L119.221 29.5H114.751ZM124.177 29.5V8.91481H133.823C136.293 8.91481 138.175 9.40493 139.469 10.3852C140.763 11.3458 141.41 12.6397 141.41 14.267C141.41 15.3648 141.155 16.3059 140.645 17.0901C140.135 17.8547 139.449 18.4526 138.587 18.8839C137.744 19.2956 136.822 19.5015 135.822 19.5015L136.352 18.4428C137.508 18.4428 138.547 18.6585 139.469 19.0898C140.39 19.5015 141.116 20.1092 141.645 20.913C142.194 21.7168 142.468 22.7167 142.468 23.9126C142.468 25.677 141.792 27.0494 140.439 28.0296C139.086 29.0099 137.077 29.5 134.411 29.5H124.177ZM128 26.5004H134.175C135.607 26.5004 136.704 26.2652 137.469 25.7947C138.234 25.3241 138.616 24.5694 138.616 23.5303C138.616 22.5108 138.234 21.7658 137.469 21.2953C136.704 20.8052 135.607 20.5601 134.175 20.5601H127.706V17.59H133.411C134.744 17.59 135.763 17.3547 136.469 16.8842C137.195 16.4137 137.557 15.7079 137.557 14.7669C137.557 13.8062 137.195 13.0907 136.469 12.6201C135.763 12.1496 134.744 11.9144 133.411 11.9144H128V26.5004ZM158.547 29.7941C156.939 29.7941 155.459 29.5294 154.106 29.0001C152.753 28.4707 151.577 27.7356 150.577 26.7945C149.577 25.8339 148.803 24.7164 148.254 23.4421C147.705 22.1481 147.431 20.7366 147.431 19.2074C147.431 17.6782 147.705 16.2765 148.254 15.0021C148.803 13.7082 149.577 12.5907 150.577 11.6497C151.577 10.6891 152.753 9.94407 154.106 9.41473C155.459 8.8854 156.929 8.62073 158.517 8.62073C160.125 8.62073 161.595 8.8854 162.928 9.41473C164.281 9.94407 165.457 10.6891 166.457 11.6497C167.457 12.5907 168.231 13.7082 168.78 15.0021C169.329 16.2765 169.604 17.6782 169.604 19.2074C169.604 20.7366 169.329 22.1481 168.78 23.4421C168.231 24.736 167.457 25.8535 166.457 26.7945C165.457 27.7356 164.281 28.4707 162.928 29.0001C161.595 29.5294 160.135 29.7941 158.547 29.7941ZM158.517 26.4416C159.556 26.4416 160.517 26.2652 161.399 25.9123C162.281 25.5594 163.046 25.0595 163.693 24.4125C164.34 23.7459 164.84 22.9814 165.193 22.1187C165.565 21.2365 165.751 20.2661 165.751 19.2074C165.751 18.1487 165.565 17.1881 165.193 16.3255C164.84 15.4433 164.34 14.6787 163.693 14.0317C163.046 13.3651 162.281 12.8554 161.399 12.5025C160.517 12.1496 159.556 11.9732 158.517 11.9732C157.478 11.9732 156.517 12.1496 155.635 12.5025C154.773 12.8554 154.008 13.3651 153.341 14.0317C152.694 14.6787 152.185 15.4433 151.812 16.3255C151.459 17.1881 151.283 18.1487 151.283 19.2074C151.283 20.2465 151.459 21.2071 151.812 22.0893C152.185 22.9716 152.694 23.7459 153.341 24.4125C153.988 25.0595 154.753 25.5594 155.635 25.9123C156.517 26.2652 157.478 26.4416 158.517 26.4416ZM172.762 29.5L181.437 17.5606V20.4425L173.174 8.91481H177.497L183.643 17.443L181.879 17.4724L187.966 8.91481H192.112L183.908 20.2367V17.4724L192.642 29.5H188.231L181.761 20.4425H183.496L177.115 29.5H172.762Z" fill="white"/>
</g>
<defs>
<clipPath id="clip0_59_111">
<rect width="193.226" height="36" fill="white" transform="translate(0 0.5)"/>
</clipPath>
</defs>
</svg>
